<?xml version="1.0" encoding="UTF-8"?><svg id="Layer_2" xmlns="http://www.w3.org/2000/svg" viewBox="0 0 480 55.9112"><g id="Components"><g id="f3666620-fe66-4b05-b1ed-7b6c385cc906_5"><path d="M98.148,0H18.6752c-2.8535,0-5.6858,2.0128-6.3334,4.5009L.1327,51.4104c-.6476,2.488,1.137,4.5009,3.9905,4.5009h79.4728c2.8455,0,5.6858-2.0128,6.3334-4.5009l12.2091-46.9095C102.7861,2.0128,100.9935,0,98.148,0ZM43.0088,38.5927c2.1215,2.7816,6.8617,5.1718-5.6489,10.9866H12.6485c-2.4607,0-3.4074-2.3063-1.7097-4.1794L45.1928,7.7507c1.7193-1.894,4.8533-1.894,5.5868,0l5.5171,14.1875c-.4398.7967-3.005,4.9551-10.3173,8.5055-6.814,3.2988-4.2909,6.4158-2.9706,8.149ZM78.3668,49.5793h-26.8035c7.4617-4.6476,5.2782-8.4845,2.3618-10.0291-6.8611-3.6342-2.1509-7.2265,3.8465-13.8241l7.8689-8.6453c1.7211-1.901,4.8471-1.901,5.5867,0l11.0168,28.3191c.7309,1.873-1.4244,4.1794-3.8771,4.1794Z" style="fill:#fff;"/><path d="M121.4481,6.3728h33.5669c8.0878,0,11.3044,2.7084,9.8152,8.4959l-1.363,5.2944c-.9498,3.6936-2.9593,6.0948-8.1308,7.2647,5.0826.8606,5.9587,3.8773,5.0874,7.2637l-1.6164,6.2795c-1.4729,5.7252-6.1003,8.4959-14.1871,8.4959h-34.2632l11.0911-43.0941ZM142.7188,40.971c1.2176,0,1.7321-.3073,1.954-1.17l1.8536-7.2024c.2382-.9239-.1339-1.17-1.3515-1.17h-15.7395l-2.4562,9.5423h15.7395ZM146.5398,23.4259c1.2176,0,1.7312-.3083,1.9531-1.1689l1.6002-6.2183c.2382-.9239-.1339-1.17-1.3515-1.17h-15.0441l-2.2018,8.5572h15.0441Z" style="fill:#fff;"/><path d="M172.2781,6.3728h16.0876l8.7793,24.0095,21.0488-24.0095h16.0015l-11.0911,43.0941h-14.0877l6.7344-26.1646-17.5854,20.6854h-9.5665l-6.9381-20.6854-6.7344,26.1646h-13.7395l11.0911-43.0941Z" style="fill:#fff;"/><path d="M230.4747,40.971l6.7182-26.1023c1.4892-5.7875,6.1864-8.4959,14.2742-8.4959h21.7403c8.0878,0,11.2164,2.7084,9.7272,8.4959l-1.933,7.5107h-14.4358l1.537-5.9712c.2372-.9239-.1329-1.17-1.3505-1.17h-13.5664c-1.2176,0-1.7159.246-1.9531,1.17l-5.9262,23.0243c-.2209.8606.1339,1.1689,1.3515,1.1689h13.5664c1.2176,0,1.7312-.3083,1.9521-1.1689l1.5533-6.0335h14.4358l-1.9493,7.572c-1.4729,5.7252-6.0993,8.4959-14.1871,8.4959h-21.7403c-8.0878,0-11.2872-2.7707-9.8142-8.4959Z" style="fill:#fff;"/><path d="M289.5311,6.3728h41.9158l-2.2812,8.8655h-27.48l-2.1549,8.3724h22.0014l-2.2505,8.7419h-22.0014l-4.4045,17.1143h-14.4358l11.0911-43.0941Z" style="fill:#fff;"/><path d="M386.1305,6.3728h34.7844c8.0878,0,11.3044,2.7084,9.8152,8.4959l-6.7182,26.1023c-1.4729,5.7252-6.1003,8.4959-14.1881,8.4959h-34.7844l11.0911-43.0941ZM408.019,40.6015c1.2176,0,1.7302-.3083,1.9521-1.1689l5.9262-23.0243c.2372-.9239-.1329-1.17-1.3505-1.17h-16.2617l-6.5278,25.3631h16.2617Z" style="fill:#fff;"/><path d="M428.2299,40.971l1.4576-5.6639h14.2617l-1.1248,4.3704c-.2219.8627.1339,1.171,1.3515,1.171h13.7405c1.2166,0,1.7312-.3083,1.9531-1.171l1.1564-4.4929c.2535-.9852-.2755-1.2935-2.0229-1.6008l-15.4611-2.7707c-7.7234-1.416-11.7472-3.0157-10.2417-8.8644l1.8221-7.0799c1.4892-5.7875,6.1003-8.4959,14.1871-8.4959h20.5237c8.0878,0,11.3034,2.7084,9.8142,8.4959l-1.3314,5.1719h-14.2608l.9976-3.8794c.2382-.9229-.1339-1.1689-1.3515-1.1689h-12.5219c-1.2176,0-1.7159.246-1.954,1.1689l-1.0301,4.0019c-.2535.9852.1894,1.2935,2.0239,1.6008l15.4611,2.7697c7.7234,1.416,11.7463,3.0168,10.2417,8.8655l-1.9493,7.572c-1.4739,5.7252-6.0993,8.4959-14.1871,8.4959h-21.7412c-8.0868,0-11.2872-2.7707-9.8142-8.4959Z" style="fill:#fff;"/><path d="M368.7623,6.3767h-22.3496c-8.0013,0-12.7481,2.8869-14.1861,8.4879l-8.9096,34.6003h14.4349l2.3463-9.1042h17.484l-2.3463,9.1042h14.4348l8.8988-34.6003c1.4489-5.6009-1.8922-8.4879-9.807-8.4879ZM342.3363,31.6781l3.8818-15.0836c.2054-.8001.7352-1.1677,1.9463-1.1677h14.1753c1.1353,0,1.557.3676,1.3516,1.1677l-3.8818,15.0836h-17.4731Z" style="fill:#fff;"/></g></g></svg>